<svg id="Layer_1" xmlns="http://www.w3.org/2000/svg" viewBox="29 -24 209 201" enable-background="new 29 -24 209 201"><style>.st0{filter:url(#filter-1);} .st1{fill:#FFFFFF;} .st2{filter:url(#filter-2);} .st3{fill:#D61F26;} .st4{fill:none;stroke:#D61F26;stroke-width:3;} .st5{enable-background:new ;} .st6{fill:#9F0000;} .st7{fill:#BF1025;} .st8{fill:#FFC713;} .st9{fill:#FF9700;} .st10{fill:#FFAA00;}</style><filter width="200%" height="200%" y="-50%" filterUnits="objectBoundingBox" x="-50%" id="filter-2"><feOffset dy="2" result="shadowOffsetOuter1" in="SourceAlpha" dx="2"/><feGaussianBlur result="shadowBlurOuter1" in="shadowOffsetOuter1" stdDeviation="2"/><feColorMatrix result="shadowMatrixOuter1" in="shadowBlurOuter1" values="0 0 0 0 0 0 0 0 0 0 0 0 0 0 0 0 0 0 0.128158967 0"/><feMerge><feMergeNode in="shadowMatrixOuter1"/><feMergeNode in="SourceGraphic"/></feMerge></filter><filter width="200%" height="200%" y="-50%" filterUnits="objectBoundingBox" x="-50%" id="filter-1"><feOffset dy="2" result="shadowOffsetOuter1" in="SourceAlpha" dx="2"/><feGaussianBlur result="shadowBlurOuter1" in="shadowOffsetOuter1" stdDeviation="2"/><feColorMatrix result="shadowMatrixOuter1" in="shadowBlurOuter1" values="0 0 0 0 0 0 0 0 0 0 0 0 0 0 0 0 0 0 0.0925328351 0"/><feMerge><feMergeNode in="shadowMatrixOuter1"/><feMergeNode in="SourceGraphic"/></feMerge></filter><g id="Current"><g id="HOMEPAGE"><g id="how-it-works-copy-2"><g id="Wie-funktioniert-eig-_x2B_-Group-_x2B_-Group-_x2B_-Group"><g id="Group-_x2B_-Group-_x2B_-Group"><g id="Group"><g id="unterwegs"><circle class="st0 st1" cx="133.5" cy="73.5" r="97.5" id="Oval-197-Copy-2" transform="translate(2 1)"/><g id="Oval-161-Copy-2" class="st2" transform="translate(2 1)"><circle class="st3" cx="51" cy="12" r="22"/><circle class="st4" cx="51" cy="12" r="22"/></g><path class="st5 st1" d="M58 16.8c0 .6-.1 1.1-.2 1.6s-.4.9-.6 1.3-.6.7-1 1-.8.5-1.3.7-1 .3-1.6.4-1.3.2-1.9.2h-1.1s-.8 0-1.1-.1-.7-.1-1.1-.1-.7-.1-1-.2v-2.3c.3 0 .6.1.9.1h2.7c.6 0 1.1-.1 1.6-.2s.8-.3 1.1-.5.5-.5.7-.8.2-.7.2-1.1c0-.3 0-.6-.1-.9s-.2-.5-.4-.7-.4-.4-.6-.5-.5-.3-.8-.3-.6-.1-.9-.2-.7-.1-1.1-.1H49v-2.4h1.5c.6 0 1.2-.1 1.6-.2s.8-.3 1.1-.5.5-.5.7-.8c.1-.3.2-.6.2-1 0-.2 0-.4-.1-.6s-.1-.4-.2-.6c-.1-.2-.2-.3-.3-.5s-.3 0-.5-.1-.4-.2-.7-.2-.5-.1-.9-.1h-.8s-.6.1-.9.1-.6.1-.9.2l-.9.3-.5-2.4c.4-.1.8-.3 1.1-.4.5.1.9 0 1.3-.1s.8-.1 1.2-.2c.4 0 .8-.1 1.2-.1.9 0 1.6.1 2.3.3s1.2.5 1.7.9.8.8 1 1.3.4 1.1.4 1.8c0 .5-.1.9-.2 1.4s-.4.8-.7 1.2-.6.6-1 .9-.9.4-1.4.6c.4 0 .7.1 1.1.2s.6.2.9.4.5.4.7.6.4.5.5.8.3.6.3.9.2.7.2 1z"/><g id="Imported-Layers-Copy-6"><path id="Fill-1" class="st3" d="M163 50.8h-8.3s.6 1.4 1.4 3.5c1.8 4.7 4.8 13.2 6 20.3 1.4 8.5-8.2 14.8-10.2 14.8h-21.7c-1.7-1.7-1.7-4.8-1-8.1 1.3-5.6 4.8-11.7 4.8-11.7h-30.4c-24.8 0-27.4 25.5-27.4 28.8h75.7c5.4 0 9.2-3.4 9.2-3.4l15-16.9c-.7-2.9-13.1-27.3-13.1-27.3"/><path id="Fill-2" class="st6" d="M113.2 69.7h24.2c2.5 0 4.6-2 4.6-4.5s-2.1-4.6-4.6-4.6H114c-2.5 0-4.6 2.1-4.6 4.6 0 2.2 1.6 4.1 3.8 4.5"/><path id="Fill-3" class="st3" d="M79.3 69.7h26.3c2.1 0 3.8-1.7 3.8-3.8V39.6c0-2.1-1.7-3.8-3.8-3.8H79.3c-2.1 0-3.8 1.7-3.8 3.8v26.3c0 2.1 1.7 3.8 3.8 3.8"/><path id="Fill-4" class="st3" d="M114 96.5c-.9-8-7.7-14.2-15.9-14.2-8.9 0-16.1 7.2-16.1 16.1 0 8.2 6.2 15 14.2 15.9.6.1 1.2.1 1.9.1 8.9 0 16.1-7.2 16.1-16.1-.1-.5-.1-1.1-.2-1.8"/><path id="Fill-5" class="st7" d="M114.1 98.4c0-.6 0-1.3-.1-1.9-.2-1.5-.6-3-1.2-4.4L82 98.4l16 16.1c8.9 0 16.1-7.2 16.1-16.1"/><path id="Fill-6" class="st6" d="M98 106.7c4.5 0 8.2-3.7 8.2-8.2 0-4.5-3.7-8.2-8.2-8.2s-8.2 3.7-8.2 8.2c0 4.5 3.7 8.2 8.2 8.2"/><path id="Fill-7" class="st3" d="M178.9 82.4c-8.9 0-16.1 7.2-16.1 16.1 0 8.9 7.2 16.1 16.1 16.1s16.1-7.2 16.1-16.1c-.1-9-7.3-16.1-16.1-16.1"/><path id="Fill-8" class="st7" d="M180.7 82.5c-5.7 2-14.7 6.2-17.7 13.8v.1l18 18c7.9-1 14-7.7 14-15.9-.1-8.3-6.3-15.1-14.3-16"/><path id="Fill-9" class="st6" d="M178.9 90.2c-4.5 0-8.2 3.7-8.2 8.2 0 4.6 3.7 8.2 8.2 8.2 4.6 0 8.2-3.7 8.2-8.2 0-4.5-3.7-8.2-8.2-8.2"/><path id="Fill-10" class="st7" d="M114.1 86.1l12.3 12.3h-17.7l5.4-12.3"/><path id="Fill-11" class="st6" d="M119.7 92.3c-1.4-3.4-4.1-7.4-9.3-9.5-27.6-10.9-32.6 15.6-32.6 15.6h43.4s-.2-2.8-1.5-6.1"/><path id="Fill-12" class="st8" d="M118.3 92.3c-1.4-3.4-4.1-7.4-9.3-9.5-27.6-10.9-32.7 15.6-32.7 15.6h43.4c.1 0-.1-2.8-1.4-6.1"/><path id="Fill-13" class="st6" d="M175.1 79.2c-12.2 1.4-17.7 16.9-17.7 16.9s-.1.7 0 1.2c1.9-.9 3.6-1.8 3.6-1.8l14.1-16.3"/><path id="Fill-14" class="st8" d="M184.1 79.2C165.8 75.4 158.8 96 158.8 96s-.4 3.9 3.2 1.1c5.8-6 13.6-12.1 23.1-14.8 1.9-.5 3.2-2-1-3.1"/><path id="Fill-15" class="st9" d="M82.9 96.1h12.7c.5 0 .9-.4.9-.9s-.4-.9-.9-.9H82.9c-.5 0-.9.4-.9.9s.4.9.9.9"/><path id="Fill-16" class="st9" d="M86.1 92.9h12.7c.5 0 .9-.4.9-.9s-.4-.9-.9-.9H86.1c-.5 0-.9.4-.9.9s.4.9.9.9"/><path id="Fill-17" class="st9" d="M89.3 89.6H102c.5 0 .9-.4.9-.9s-.4-.9-.9-.9H89.3c-.5 0-.9.4-.9.9s.4.9.9.9"/><path id="Fill-18" class="st8" d="M166 44.5l-.6-3.8h-6.6c-9.8.4-4.1 10.2-4.1 10.2H167l-1-6.4"/><path id="Fill-19" class="st10" d="M159.4 44.2c-.4.6-5.3 1.9-6.1 2.8.4 2.1 1.5 3.8 1.5 3.8H166l-6.6-6.6"/><path id="Fill-20" class="st3" d="M148.2 47.6h9.8c1.1 0 2-.9 2-2s-.9-2-2-2h-9.8c-1.1 0-2 .9-2 2s.9 2 2 2"/><path id="Fill-21" class="st7" d="M75.5 42.9h33.9v.8H75.5v-.8z"/><path id="Fill-22" class="st7" d="M129.2 81.3c1.3-5.6 4.8-11.7 4.8-11.7h-21.9l16.7 16.7c-.2-1.4 0-3.2.4-5"/><path id="Fill-23" class="st7" d="M154.8 50.8s.6 1.4 1.4 3.5c.3.9.7 1.9 1.1 3L174.9 75 163 50.8h-8.2"/></g></g></g></g></g></g></g></g></svg>