<svg id="Layer_1" xmlns="http://www.w3.org/2000/svg" viewBox="27 -24 205 201" enable-background="new 27 -24 205 201"><style>.st0{filter:url(#filter-1);} .st1{fill:#FFFFFF;} .st2{filter:url(#filter-2);} .st3{fill:#D61F26;} .st4{fill:none;stroke:#D61F26;stroke-width:3;} .st5{enable-background:new ;} .st6{fill:#FFC713;} .st7{fill:#FFAA00;} .st8{fill:#FF9700;} .st9{fill:#9F0000;} .st10{fill:#BF1025;}</style><filter width="200%" height="200%" y="-50%" filterUnits="objectBoundingBox" x="-50%" id="filter-2"><feOffset dy="2" result="shadowOffsetOuter1" in="SourceAlpha" dx="2"/><feGaussianBlur result="shadowBlurOuter1" in="shadowOffsetOuter1" stdDeviation="2"/><feColorMatrix result="shadowMatrixOuter1" in="shadowBlurOuter1" values="0 0 0 0 0 0 0 0 0 0 0 0 0 0 0 0 0 0 0.128158967 0"/><feMerge><feMergeNode in="shadowMatrixOuter1"/><feMergeNode in="SourceGraphic"/></feMerge></filter><filter width="200%" height="200%" y="-50%" filterUnits="objectBoundingBox" x="-50%" id="filter-1"><feOffset dy="2" result="shadowOffsetOuter1" in="SourceAlpha" dx="2"/><feGaussianBlur result="shadowBlurOuter1" in="shadowOffsetOuter1" stdDeviation="2"/><feColorMatrix result="shadowMatrixOuter1" in="shadowBlurOuter1" values="0 0 0 0 0 0 0 0 0 0 0 0 0 0 0 0 0 0 0.0925328351 0"/><feMerge><feMergeNode in="shadowMatrixOuter1"/><feMergeNode in="SourceGraphic"/></feMerge></filter><g id="Homepage"><g id="HOMEPAGE"><g id="how-it-works-copy-2"><g id="Wie-funktioniert-eig-_x2B_-Group-_x2B_-Group-_x2B_-Group"><g id="Group-_x2B_-Group-_x2B_-Group"><g id="Lieblingsessen"><g id="Group"><circle class="st0 st1" cx="127" cy="73.5" r="97.5" id="Oval-197-Copy" transform="translate(2 1)"/><g id="Oval-161-Copy" class="st2" transform="translate(2 1)"><circle class="st3" cx="49" cy="8" r="22"/><circle class="st4" cx="49" cy="8" r="22"/></g><path class="st5 st1" d="M45.1 15v-2.4l3.3-2.6c.5-.4.9-.7 1.2-1s.7-.6.9-.9.5-.5.6-.8.3-.5.4-.7.2-.4.2-.6.1-.4.1-.6 0-.4-.1-.6-.1-.4-.2-.5-.2-.3-.4-.4-.3-.2-.5-.3-.4-.2-.6-.2-.5-.1-.7-.1h-.8s-.5 0-.8.1-.6.1-.9.2l-.9.3-.5-2.5c.3-.1.7-.2 1.1-.3.4-.1.8-.2 1.1-.3.4-.1.8-.1 1.2-.2.4 0 .8-.1 1.2-.1.9 0 1.7.1 2.3.3s1.2.5 1.7.9.8.8 1.1 1.3.4 1.1.4 1.8c0 .4 0 .7-.1 1s-.1.7-.3 1-.3.6-.5.9-.5.6-.8 1-.7.7-1.1 1-.9.7-1.4 1.1l-2.1 1.6H56V15H45.1z"/><g id="Imported-Layers-Copy-3"><path id="Fill-1" class="st6" d="M175.51 99.75l19.3-50.9c.2-.4-.1-.6-.4-.4l-52.3 17.9s6.9 25 33.4 33.4"/><path id="Fill-2" class="st7" d="M177.61 94.25l-9.5-9.5 6.7-6.7 6.5 6.5-3.7 9.7"/><path id="Fill-3" class="st7" d="M182.51 81.25l-17.6-17.6 6.7-6.7 14.6 14.6-3.7 9.7"/><path id="Fill-4" class="st3" d="M139.21 67.75c6 17 18.9 29.6 34.5 35.6.2.1.4 0 .5-.2l2-5.2c.1-.2 0-.5-.2-.5-14.6-5.6-25.7-17.1-30.8-31.7-.1-.2-.3-.3-.5-.3l-5.1 1.7c-.3.2-.4.4-.4.6"/><path id="Fill-5" class="st7" d="M183.31 67.45l3.3 3.3 2.6-6.8-5.9 3.5"/><path id="Fill-6" class="st3" d="M169.71 76.55c-2.5.8-3.9 3.5-3.1 6 .8 2.5 3.5 3.9 6 3.1 2.5-.8 3.9-3.5 3.1-6-.9-2.5-3.5-3.9-6-3.1"/><path id="Fill-7" class="st3" d="M163.41 61.35c.8 2.5 3.5 3.9 6 3.1 2.5-.8 3.9-3.5 3.1-6-.3-.8-.7-1.5-1.3-2.1l-8 2.8c-.1.7-.1 1.5.2 2.2"/><path id="Fill-8" class="st3" d="M185.01 59.35c-2.5.8-3.9 3.5-3.1 6 .7 2.3 3.1 3.7 5.5 3.2l2.9-7.6c-1.3-1.5-3.3-2.3-5.3-1.6"/></g><g id="Imported-Layers-Copy-4"><path id="Fill-1_1_" class="st3" d="M85.78 40.642h46.3s3.3-.2 3.3 6.5-3.3 6.7-3.3 6.7h-46.3s-3.3 0-3.3-6.7c-.1-6.7 3.3-6.5 3.3-6.5"/><path id="Fill-2_1_" class="st7" d="M83.08 56.142h51.6c.4 0 .7.3.7.7 0 0 0 12.6-6.6 12.6h-39.7c-6.6 0-6.6-12.6-6.6-12.6-.1-.4.2-.7.6-.7"/><path id="Fill-3_1_" class="st8" d="M117.18 69.442h11.6c3.8 0 5.4-4.1 6.1-7.6l-5.6-5.6h-26l13.2 13.2h.7"/><path id="Fill-4_1_" class="st6" d="M133.88 53.842h-50c-.3 0-.5.2-.5.5v1.4c0 .3.2.5.5.5h19.3l18.3 9.2c.3.2.8.1 1-.2l6.7-8.9h4.7c.3 0 .5-.2.5-.5v-1.5c0-.3-.2-.5-.5-.5"/><path id="Fill-5_1_" class="st9" d="M133.88 38.442h-50c-.3 0-.5.2-.5.5v1.4c0 .3.2.5.5.5h50c.3 0 .5-.2.5-.5v-1.4c0-.3-.2-.5-.5-.5"/><path id="Fill-6_1_" class="st7" d="M108.88 21.942c-26.5 0-26.5 15.9-26.5 15.9 0 .4.3.7.7.7h51.6c.4 0 .7-.3.7-.7 0 0 0-15.9-26.5-15.9"/><path id="Fill-7_1_" class="st6" d="M94.28 30.642c.5.5.2 1.7-.7 2.6-.9.9-2.1 1.3-2.6.7-.5-.5-.2-1.7.7-2.6.9-.9 2.1-1.3 2.6-.7"/><path id="Fill-8_1_" class="st6" d="M102.28 26.242c.5.5.2 1.7-.7 2.6-.9.9-2.1 1.3-2.6.7-.5-.5-.2-1.7.7-2.6.9-.9 2-1.3 2.6-.7"/><path id="Fill-9" class="st6" d="M110.18 30.542c.5.5.2 1.7-.7 2.6-.9.9-2.1 1.3-2.6.7-.5-.5-.2-1.7.7-2.6.9-.9 2.1-1.2 2.6-.7"/><path id="Fill-10" class="st6" d="M118.18 26.142c.5.5.2 1.7-.7 2.6-.9.9-2.1 1.3-2.6.7-.5-.5-.2-1.7.7-2.6.9-.9 2.1-1.2 2.6-.7"/><path id="Fill-11" class="st6" d="M126.18 30.642c.5.5.2 1.7-.7 2.6-.9.9-2.1 1.3-2.6.7-.5-.5-.2-1.7.7-2.6.9-.9 2-1.3 2.6-.7"/></g><g id="Imported-Layers-Copy-5"><path id="Fill-1_2_" class="st3" d="M129.88 85.78l-.6-1c-.1-.1-.2-.2-.3-.2h-.3c-.1 0-.3 0-.4.1l-11.7 12.6c.5.3 1 .6 1.5 1l11.8-12.2c0-.1.1-.2 0-.3"/><path id="Fill-2_2_" class="st6" d="M131.48 108.48c-1.2-1.2-6.2-6.1-8.3-7.8-5.4-4.2-10.4-6.3-14.9-6.3s-9.5 2.1-14.9 6.3c-2.1 1.6-5.9 5.4-7.1 6.6l45.2 1.2"/><path id="Fill-3_2_" class="st3" d="M134.08 106.48h-51.4c-.2 0-.3.1-.3.3.1 11.6 7.8 21.3 18.4 24.6.2.1.5.1.7.1h14c.2 0 .5 0 .7-.1 10.5-3.2 18.2-13 18.4-24.6-.2-.2-.4-.3-.5-.3"/><path id="Fill-4_2_" class="st10" d="M135.88 89.28l-.4-1.1c0-.1-.2-.2-.3-.3l-.3-.1c-.1 0-.3 0-.4.1l-19.3 14.9c.3.7.5.9 1.1 1.1l19.5-14.3c.1 0 .1-.2.1-.3"/><path id="Fill-5_2_" class="st9" d="M94.98 112.78h-2v-.9h1.1v-1.5h-2.5v2.4h-4.3v-3.3h2v.9h-1.1v1.5h2.5v-2.4h4.3v3.3zm1.4-.5h.9v-2.4h-.9v2.4zm10-2.8h-4.3v2.4h-2.5v-1.5h1.1v-.9h-2v3.3h4.3v-2.4h2.5v1.5h-1.1v.9h2v-3.3zm1.4 2.8h.9v-2.4h-.9v2.4zm-22.8 0h1v-2.4h-1v2.4zm32.7-2.8h-4.3v2.4h-2.4v-1.5h1.1v-.9h-2v3.3h4.3v-2.4h2.5v1.5h-1.1v.9h2v-3.3h-.1zm1.4 2.8h.9v-2.4h-.9v2.4zm10-2.8h-4.3v2.4h-2.5v-1.5h1.1v-.9h-2v3.3h4.3v-2.4h2.5v1.5h-1.1v.9h2v-3.3zm1.4 2.8h.9v-2.4h-.9v2.4z"/></g></g></g></g></g></g></g></g></svg>