<svg id="Layer_1" xmlns="http://www.w3.org/2000/svg" viewBox="28 -24 207 201" enable-background="new 28 -24 207 201"><style>.st0{filter:url(#filter-1);} .st1{fill:#FFFFFF;} .st2{filter:url(#Adobe_OpacityMaskFilter);} .st3{mask:url(#mask-3);fill:#FFC713;} .st4{filter:url(#Adobe_OpacityMaskFilter_1_);} .st5{mask:url(#mask-5);fill:#FFC713;} .st6{filter:url(#Adobe_OpacityMaskFilter_2_);} .st7{mask:url(#mask-7);fill:#D61F26;} .st8{filter:url(#filter-8);} .st9{fill:#D61F26;} .st10{fill:none;stroke:#D61F26;stroke-width:3;} .st11{enable-background:new ;}</style><filter width="200%" height="200%" y="-50%" filterUnits="objectBoundingBox" x="-50%" id="filter-8"><feOffset dy="2" result="shadowOffsetOuter1" in="SourceAlpha" dx="2"/><feGaussianBlur result="shadowBlurOuter1" in="shadowOffsetOuter1" stdDeviation="2"/><feColorMatrix result="shadowMatrixOuter1" in="shadowBlurOuter1" values="0 0 0 0 0 0 0 0 0 0 0 0 0 0 0 0 0 0 0.128158967 0"/><feMerge><feMergeNode in="shadowMatrixOuter1"/><feMergeNode in="SourceGraphic"/></feMerge></filter><filter width="200%" height="200%" y="-50%" filterUnits="objectBoundingBox" x="-50%" id="filter-1"><feOffset dy="2" result="shadowOffsetOuter1" in="SourceAlpha" dx="2"/><feGaussianBlur result="shadowBlurOuter1" in="shadowOffsetOuter1" stdDeviation="2"/><feColorMatrix result="shadowMatrixOuter1" in="shadowBlurOuter1" values="0 0 0 0 0 0 0 0 0 0 0 0 0 0 0 0 0 0 0.0925328351 0"/><feMerge><feMergeNode in="shadowMatrixOuter1"/><feMergeNode in="SourceGraphic"/></feMerge></filter><g id="Homepage"><g id="HOMEPAGE"><g id="how-it-works-copy-2"><g id="Wie-funktioniert-eig-_x2B_-Group-_x2B_-Group-_x2B_-Group"><g id="Group-_x2B_-Group-_x2B_-Group"><g id="Group"><g id="Lieferservice"><g id="Oval-197-_x2B_-Imported-Layers-Copy-2"><circle class="st0 st1" cx="125.5" cy="73.5" r="97.5" id="Oval-197" transform="translate(7 1)"/><g id="Page-1"><g id="Group-3" transform="translate(79 56)"><defs><filter id="Adobe_OpacityMaskFilter" filterUnits="userSpaceOnUse" x="28" y="-23.4" width="26.3" height="85.4"><feColorMatrix values="1 0 0 0 0 0 1 0 0 0 0 0 1 0 0 0 0 0 1 0"/></filter></defs><mask maskUnits="userSpaceOnUse" x="28" y="-23.4" width="26.3" height="85.4" id="mask-3"><g class="st2"><path id="path-2" class="st1" d="M28-23.4h51.1V62H28v-85.4z"/></g></mask><path id="Fill-1" class="st3" d="M54.3-20.8c0-1.5-1.2-2.6-2.6-2.6s-2.6 1.2-2.6 2.6V-.9c0 1.5-1.2 2.6-2.6 2.6-1.5 0-2.6-1.2-2.6-2.6v-19.9c0-1.5-1.2-2.6-2.6-2.6-1.5 0-2.6 1.2-2.6 2.6V-.9c0 1.5-1.2 2.6-2.6 2.6-1.5 0-2.6-1.2-2.6-2.6v-19.9c0-1.5-1.2-2.6-2.6-2.6S28-22.2 28-20.8V5.6c0 4 3.2 7.2 7.1 7.4v42.9c0 3.4 2.7 6.1 6.1 6.1 3.3 0 6.1-2.7 6.1-6.1V13c3.9-.2 7.1-3.4 7.1-7.4v-26.4z"/></g><g id="Group-6" transform="translate(79 56)"><defs><filter id="Adobe_OpacityMaskFilter_1_" filterUnits="userSpaceOnUse" x="60.6" y="-23.4" width="18.5" height="85.2"><feColorMatrix values="1 0 0 0 0 0 1 0 0 0 0 0 1 0 0 0 0 0 1 0"/></filter></defs><mask maskUnits="userSpaceOnUse" x="60.6" y="-23.4" width="18.5" height="85.2" id="mask-5"><g class="st4"><path id="path-4" class="st1" d="M28-23.4h51.1V62H28v-85.4z"/></g></mask><path id="Fill-4" class="st5" d="M79.1-20.8c0-1.4-1.2-2.6-2.6-2.6-.7 0-1.4.3-1.9.8C59.5-6.9 60.6 19 60.6 19h6.3v36.8c0 3.4 2.7 6.1 6.1 6.1 3.3 0 6.1-2.7 6.1-6.1v-76.6z"/></g><g id="Group-9" transform="translate(79 56)"><defs><filter id="Adobe_OpacityMaskFilter_2_" filterUnits="userSpaceOnUse" x="35.1" y="20.2" width="44" height="41.8"><feColorMatrix values="1 0 0 0 0 0 1 0 0 0 0 0 1 0 0 0 0 0 1 0"/></filter></defs><mask maskUnits="userSpaceOnUse" x="35.1" y="20.2" width="44" height="41.8" id="mask-7"><g class="st6"><path id="path-6" class="st1" d="M28-23.4h51.1V62H28v-85.4z"/></g></mask><path id="Fill-7" class="st7" d="M79.1 20.4H66.9v35.3c0 3.4 2.7 6.1 6.1 6.1 3.3 0 6.1-2.7 6.1-6.1V20.4zm-31.9-.2v35.7c0 3.4-2.7 6.1-6.1 6.1-3.3 0-6.1-2.7-6.1-6.1V20.2h12.2z"/></g></g></g><g id="Oval-161" class="st8" transform="translate(2 1)"><circle class="st9" cx="50" cy="8" r="22"/><circle class="st10" cx="50" cy="8" r="22"/></g><path class="st11 st1" d="M48 15v-2.5h3.7V3.9l-3.2 1.7-.8-1.9L52.2.8H55v11.7h3V15H48z"/></g></g></g></g></g></g></g></svg>