<?xml version="1.0" encoding="utf-8"?>
<!-- Generator: Adobe Illustrator 15.0.0, SVG Export Plug-In . SVG Version: 6.00 Build 0)  -->
<!DOCTYPE svg PUBLIC "-//W3C//DTD SVG 1.1//EN" "http://www.w3.org/Graphics/SVG/1.1/DTD/svg11.dtd">
<svg version="1.1" id="Слой_1" xmlns="http://www.w3.org/2000/svg" xmlns:xlink="http://www.w3.org/1999/xlink" x="0px" y="0px"
	 width="83.676px" height="81.07px" viewBox="0 0 83.676 81.07" enable-background="new 0 0 83.676 81.07" xml:space="preserve">
<path fill-rule="evenodd" clip-rule="evenodd" fill="#D5527F" d="M41.015,72.845c-4.783-5.269-9.914-10.835-14.106-17.473
	c-3.995-6.325-8.346-13.955-8.359-23.179c-0.01-6.75,2.633-12.068,6.095-15.868c3.955-4.341,9.894-7.938,18.459-7.311
	C55.29,9.909,65.706,20.914,63.48,36.294c-1.152,7.965-5.147,14.701-9.056,20.504C50.381,62.802,45.95,68.426,41.015,72.845z
	 M28.127,30.411c-0.875,8.746,5.481,15.155,13.062,15.155c5.987,0,11.251-4.361,12.713-9.628c2.771-9.987-5.2-18.233-14.28-17.116
	C33.575,19.566,28.748,24.212,28.127,30.411z"/>
</svg>
