<?xml version="1.0" encoding="utf-8"?>
<!-- Generator: Adobe Illustrator 15.0.0, SVG Export Plug-In . SVG Version: 6.00 Build 0)  -->
<!DOCTYPE svg PUBLIC "-//W3C//DTD SVG 1.1//EN" "http://www.w3.org/Graphics/SVG/1.1/DTD/svg11.dtd">
<svg version="1.1" id="Слой_1" xmlns="http://www.w3.org/2000/svg" xmlns:xlink="http://www.w3.org/1999/xlink" x="0px" y="0px"
	 width="83.676px" height="81.07px" viewBox="0 0 83.676 81.07" enable-background="new 0 0 83.676 81.07" xml:space="preserve">
<path fill-rule="evenodd" clip-rule="evenodd" fill="#D5527F" d="M5.946,9.162c-1.015,0.378-1.568,1.217-1.91,2.268
	c0-0.756,0-1.512,0-2.268C4.673,9.162,5.309,9.162,5.946,9.162z"/>
<path fill-rule="evenodd" clip-rule="evenodd" fill="#D5527F" d="M5.946,9.162c0.318,0,0.637,0,0.955,0
	c4.974,2.557,10.135,4.544,15.158,7.52c1.464,0.867,3.61,2.118,4.177,3.342c0.421,0.909,0.541,2.626,0.716,4.058
	c1.191,9.742,2.371,19.75,3.581,29.362c11.618,0,23.236,0,34.853,0c0.771-1.893,1.214-4.117,1.908-6.087c-7.598,0-16.201,0-24.467,0
	c-2.306,0-6.137,0.602-7.998-0.12c-1.64-0.635-2.094-3.35-1.074-4.654c1.229-1.572,5.173-1.074,7.997-1.074
	c9.206,0,18.112,0,27.094,0c0.907-1.917,1.396-4.253,2.029-6.445c-9.758-0.218-20.283-0.12-30.675-0.12
	c-1.332,0-3.181,0.262-4.177-0.119c-1.751-0.669-2.535-4.636-0.239-5.729c1.802-0.858,8.078-0.239,10.623-0.239
	c6.471,0,14.664,0,21.723,0c4.24,0,10.38-0.971,10.623,2.745c0,0.478,0,0.955,0,1.432c-2.266,7.222-4.615,14.086-7.161,21.484
	c-0.833,2.418-1.343,5.216-3.462,5.968c-2.482,0.882-7.091,0.239-10.264,0.239c-8.864,0-17.33,0-26.259,0
	c-1.725,0-3.917,0.209-5.132-0.358c-2.263-1.058-2.342-4.95-2.745-8.235c-1.021-8.324-2.209-15.678-3.223-24.229
	c-0.198-1.674-0.355-3.496-0.835-4.536c-1.111-2.402-5.344-3.668-8.235-5.013c-3.012-1.401-6.526-2.395-7.4-5.729
	c0-0.398,0-0.796,0-1.194C4.377,10.378,4.931,9.54,5.946,9.162z"/>
<path fill-rule="evenodd" clip-rule="evenodd" fill="#D5527F" d="M32.563,75.166c-0.398,0-0.796,0-1.194,0
	c-7.712-0.617-7.055-12.46,0.597-12.412c3.191,0.02,6.189,2.385,6.207,6.206C38.188,72.479,35.703,74.496,32.563,75.166z"/>
<path fill-rule="evenodd" clip-rule="evenodd" fill="#D5527F" d="M59.656,75.166c-0.397,0-0.795,0-1.193,0
	c-3.699-0.499-6.833-4.177-5.252-8.475c0.85-2.307,3.561-4.008,5.969-3.938C67.086,62.98,66.867,74.741,59.656,75.166z"/>
</svg>
