<?xml version="1.0" encoding="utf-8"?>
<!-- Generator: Adobe Illustrator 20.1.0, SVG Export Plug-In . SVG Version: 6.00 Build 0)  -->
<svg version="1.1" id="Слой_1" xmlns="http://www.w3.org/2000/svg" xmlns:xlink="http://www.w3.org/1999/xlink" x="0px" y="0px"
	 viewBox="0 0 124.2 162.1" style="enable-background:new 0 0 124.2 162.1;" xml:space="preserve">
<g>
	<path d="M2.6,23.9h25.9c6.7,0,37.4,0.1,37.4,28.4c0,13.4-8.9,18.9-11.8,20.5c11.6,3.9,18.3,14,18.3,26c0,15.6-8.4,32.7-42.9,32.7
		H2.6V23.9z M31.9,65.3C45,65.3,46,57,46,54.3c0-10.5-9.7-11.1-14.1-11.1h-9.3v22.1H31.9z M35.5,112.2c2.3,0,17-0.1,17-13.5
		c0-4.1-1.5-14-17-14H22.5v27.5H35.5z"/>
	<path d="M85,50.9h17.7v7.3h0.3c3.8-7,10.9-10.6,18.6-9.9v18.8c-17.6-0.1-17.3,16.6-17.3,21v43.5H85V50.9z"/>
</g>
</svg>
