<?xml version="1.0" encoding="utf-8"?>
<!-- Generator: Adobe Illustrator 20.1.0, SVG Export Plug-In . SVG Version: 6.00 Build 0)  -->
<svg version="1.1" id="Слой_1" xmlns="http://www.w3.org/2000/svg" xmlns:xlink="http://www.w3.org/1999/xlink" x="0px" y="0px"
	 viewBox="0 0 124.2 162.1" style="enable-background:new 0 0 124.2 162.1;" xml:space="preserve">
<path d="M47.7,146.4c-9,0-17.6-0.2-26.1,0.1c-9.9,0.3-9.7,0.5-9.6-9.3c0.1-25,0-49.9,0-74.9c0-14.5,0.1-29-0.1-43.5
	c0-3.7,1.1-5.3,5.1-5.2c10,0.2,20.1,0.1,30.8,0.1c0-3.3,0.1-6.4,0-9.4C47.5,1.2,48.9,0,51.9,0c3.4,0.1,6.7,0,10.1,0
	c2.8-0.1,4.2,1.1,4.1,4.1c-0.1,3.1-0.9,7.1,0.7,8.9c1.5,1.8,5.7,1.3,8.7,1.8c17.8,2.6,29.3,14,30.5,31.9c0.7,10.7-4.2,19.4-12.8,26
	c-1.2,0.9-2.4,1.6-4,2.7c0.9,0.6,1.5,1.1,2.1,1.3c21.4,8.4,25.2,31.1,17.4,47.9c-5.8,12.5-16.2,18.4-29.3,20.4
	c-3.4,0.5-6.9,0.9-10.4,1c-2.4,0.1-3,1.2-2.9,3.3c0.1,2.1-0.2,4.3,0,6.4c0.2,2.9-0.9,4.2-3.9,4.2c-3.5-0.1-7-0.1-10.5,0
	c-2.8,0.1-4.2-1.1-4-4.1C47.8,152.9,47.7,150,47.7,146.4z M66,86c0,1.7,0,3.1,0,4.6c0,10.6,0,21.2,0,31.8c0,7.7,0,7.7,7.6,7
	c14.6-1.4,23.2-14.7,18.6-28.8C89,90.7,79.3,85.1,66,86z M47.4,129.9c0-15,0-29.5,0-44.2c-5.7,0-11.2,0-16.8,0c0,14.8,0,29.4,0,44.2
	C36.4,129.9,41.7,129.9,47.4,129.9z M30.5,30.2c0,13.1,0,25.7,0,38.5c5.9,0,11.3,0,17,0c0-12.9,0-25.6,0-38.5
	C41.8,30.2,36.3,30.2,30.5,30.2z M66.3,68.9c7.7-0.8,14.9-1.8,18.9-9c4.3-7.6,3.7-15.2-1.2-22.3c-4.2-6.1-10.8-6.6-17.7-6.9
	C66.3,43.4,66.3,55.8,66.3,68.9z"/>
</svg>
