<?xml version="1.0" encoding="utf-8"?>
<!-- Generator: Adobe Illustrator 20.1.0, SVG Export Plug-In . SVG Version: 6.00 Build 0)  -->
<svg version="1.1" id="Слой_1" xmlns="http://www.w3.org/2000/svg" xmlns:xlink="http://www.w3.org/1999/xlink" x="0px" y="0px"
	 viewBox="0 0 124.2 162.1" style="enable-background:new 0 0 124.2 162.1;" xml:space="preserve">
<path d="M57,161.6c0-4.9,0-9.7,0-14.9c-15.3-1.6-28.6-6.3-37.8-17.7c-5.9-7.3-8.2-15.6-9.1-24.5c5.9,0,11.6,0,17.7,0
	c0.5,8.5,3.8,16,12,21.4c5.1,3.3,10.7,5.4,17.1,6.2c0-15.8,0-31.5,0-47.4c-5.5-1.5-11.2-3-16.7-4.7c-3.5-1.1-6.8-2.5-10.1-4
	c-10.5-5.1-15-13.2-15.7-23.3C13,31.2,29.4,14.3,55.1,11.9c0.5-0.1,1-0.1,1.9-0.2c0-3.8,0-7.6,0-11.7c3.9,0,7.5,0,11.6,0
	c0,3.2,0.1,6.4,0,9.5c-0.1,1.8,0.6,2.6,2.7,2.9c22.8,3,33.3,17.3,38,34.5c0,0.2-0.1,0.3-0.2,0.7c-5.2,0-10.5,0.1-15.8-0.1
	c-0.8,0-1.9-1.4-2.2-2.4c-2.9-9-9-15.2-19.6-17.7c-0.5-0.1-1-0.2-1.5-0.3c-0.3,0-0.6,0-1.2,0c0,14.6,0,29.1,0,44
	c3.3,0.8,6.9,1.6,10.4,2.4c13,3.1,24.2,8.4,30.7,19.1c2,3.3,2.9,7,4.2,10.5c0,3.1,0,6.2,0,9.4c-0.2,0.3-0.5,0.6-0.5,1
	c-2.7,16.1-13.8,25.9-31.1,30.8c-4.5,1.3-9.2,1.8-14.1,2.7c0,4.9,0,9.7,0,14.6C64.6,161.6,60.8,161.6,57,161.6z M68.6,132.4
	c3.5-0.6,6.6-1,9.6-1.7c14-3.4,21.7-19,15-30.1C88.1,92,78.3,89.8,68.6,87.2C68.6,102.3,68.6,117.1,68.6,132.4z M56.8,68.1
	c0-14,0-27.8,0-41.6C43,27.3,34.1,35.1,33.4,46.7C32.6,57.6,39.1,64.4,56.8,68.1z"/>
</svg>
