<?xml version="1.0" encoding="utf-8"?>
<!-- Generator: Adobe Illustrator 20.1.0, SVG Export Plug-In . SVG Version: 6.00 Build 0)  -->
<svg version="1.1" id="Слой_1" xmlns="http://www.w3.org/2000/svg" xmlns:xlink="http://www.w3.org/1999/xlink" x="0px" y="0px"
	 viewBox="0 0 124.2 162.1" style="enable-background:new 0 0 124.2 162.1;" xml:space="preserve">
<path d="M82.2,159.8c-2-0.3-4-0.5-6.1-0.8c-8.3-1-16.2-3.3-23.7-6.9c-6.8-3.3-13-7.5-18.3-12.8c-6.6-6.6-11.9-14.1-15-22.9
	c-1.4-3.9-2.3-8-3.4-12c-0.2-0.9-0.5-1.3-1.5-1.3c-4.2,0.1-8.5,0-12.7,0c-0.5,0-0.9,0-1.5,0c0-5.5,0-10.9,0-16.4c4.3,0,8.6,0,13.1,0
	c0-3.7,0-7.3,0-11c-2.2,0-4.5,0-6.7,0c-1.8,0-3.6,0-5.4,0c-0.6,0-1-0.1-1-0.9c0-5,0-10,0-14.9c0-0.2,0.1-0.3,0.1-0.6
	c1.9,0,3.8,0,5.7,0c2.9,0,5.8-0.1,8.7,0c1.1,0,1.5-0.3,1.7-1.3c1.3-5.6,3.4-11,6.2-16.1c4.2-7.8,9.8-14.6,16.5-20.6
	c9.3-8.2,20.2-13.4,32.4-15.9c8-1.6,16.2-2.1,24.4-1.2c6.7,0.7,13.3,1.8,19.7,3.7c2.4,0.7,4.8,1.7,7.2,2.5c0.9,0.3,0.7,0.8,0.5,1.4
	c-1,4.1-2.1,8.3-3.1,12.4c-1,4-2,8-3,12c-0.2,1-0.7,0.8-1.4,0.6c-4.2-1.3-8.4-2.8-12.7-3.7c-8.1-1.8-16.2-2.1-24.3,0.1
	c-5.1,1.4-9.7,3.8-13.8,7.2c-6,4.9-9.5,11.2-11.4,18.4c0,0.2,0,0.3,0,0.6c19.7,0,39.4,0,59.2,0c0,5.5,0,10.8,0,16.4
	c-20.9,0-41.9,0-63,0c0,3.7,0,7.2,0,10.9c20.9,0,42,0,63,0c0,5.5,0,10.9,0,16.4c-19.9,0-39.8,0-59.9,0c0.4,1.3,0.7,2.4,1,3.5
	c2.4,8.2,7.1,14.7,14.8,19c7.1,4.1,14.9,5.6,23.1,5.5c8.6,0,16.8-1.8,24.7-4.9c0.4-0.2,0.8-0.4,1.2-0.5c0.3-0.1,0.7-0.3,1.2-0.5
	c0.5,2,0.9,4,1.4,5.9c1.4,6,2.7,12.1,4.1,18.1c0.3,1.2,0,1.8-1.2,2.4c-6.7,3.2-13.7,5.4-21,6.6c-3.1,0.5-6.2,0.8-9.3,1.2
	c-0.4,0.1-0.8,0.1-1.2,0.2C88.4,159.8,85.3,159.8,82.2,159.8z"/>
</svg>
