<?xml version="1.0" encoding="utf-8"?>
<!-- Generator: Adobe Illustrator 20.1.0, SVG Export Plug-In . SVG Version: 6.00 Build 0)  -->
<svg version="1.1" id="Слой_1" xmlns="http://www.w3.org/2000/svg" xmlns:xlink="http://www.w3.org/1999/xlink" x="0px" y="0px"
	 viewBox="0 0 124.2 162.1" style="enable-background:new 0 0 124.2 162.1;" xml:space="preserve">
<path d="M36.6,79.6c-1.5-0.2-2.3-0.3-3-0.3c-7.4,0-14.9-0.1-22.3-0.1c-2.6,0-3.4-0.8-3.1-3.4c0.4-3.6,1-7.1,1.4-10.7
	c0.2-2,1.4-2.5,3.2-2.5c10.9,0.1,21.7,0.2,32.6,0.2c3.8,0,7.7,0,11.5,0c0.7,0,1.5-0.2,2-0.6c4.7-4.1,9.3-8.2,11.6-14.2
	c1.9-4.8,1.3-9.2-1.8-13.3c-5.1-6.6-12.2-8.4-20-8.8c-9.1-0.5-17.8,1.3-26.5,3.8c-2,0.6-4,1.3-6.1,1.9c-1.7,0.5-2.5-0.1-2.3-2
	c0.7-7.5,1.5-15.1,2.1-22.6c0.2-2,1.3-2.7,3-3c14.9-3,29.9-4.2,45-2.7c12.7,1.2,24.6,5.2,33.8,14.6c4.2,4.2,7.2,9.3,8.5,15.3
	c1.8,8.1,1.2,15.8-1.9,23.4c-0.8,1.9-2,3.7-3,5.5c-1.1,2-0.7,2.8,1.6,2.9c4.6,0,9.1,0.1,13.7,0c1.9,0,2.8,0.6,2.6,2.5
	c-0.4,3.9-0.9,7.8-1.5,11.6c-0.3,1.7-1.4,2.3-3.2,2.3c-9.6-0.1-19.3-0.1-28.9,0c-3.6,0-5.9,2.5-8.1,4.9c-0.9,0.9,0,1.6,1.1,1.6
	c1.8,0,3.6,0,5.4,0c9.9,0,19.8,0.1,29.6,0.1c2.3,0,3.1,0.6,2.7,3c-0.6,3.5-0.9,7.1-1.1,10.7c-0.1,2.1-1,2.7-3.1,2.7
	c-10.1-0.1-20.3,0-30.4,0c-7.4,0-14.8,0.1-22.3-0.1c-2.7-0.1-4.4,1.1-6,3c-2.7,3.2-4.9,6.7-5.8,10.9c-1.5,7.6,3,14.9,11.1,17.8
	c7.9,2.8,16,2.2,24.2,1.4c9.7-1,18.7-4.2,27.6-8c0.8-0.3,2.1-0.6,2.4-0.3c0.5,0.6,0.5,1.7,0.4,2.6c-0.6,7.6-1.3,15.1-1.9,22.6
	c-0.2,2.4-1.2,3.3-3.5,3.7c-10.7,1.7-21.3,4.2-32,5.1c-11.9,1-24,0.6-35.5-3.8c-13-5-23.3-13-27.5-26.8c-2.5-8.1-2.9-16.5,1-24.6
	c1.5-3.1,1.1-3.7-2.3-3.6c-6.5,0.1-6.8-0.4-5.6-6.8c0.5-2.4,0.8-4.8,1.1-7.2c0.2-1.7,1-2.5,2.9-2.5c5.6,0.1,11.3,0.1,16.9,0
	C31.1,85.7,33.6,82.8,36.6,79.6z"/>
</svg>
