<?xml version="1.0" encoding="utf-8"?>
<!-- Generator: Adobe Illustrator 20.1.0, SVG Export Plug-In . SVG Version: 6.00 Build 0)  -->
<svg version="1.1" id="Слой_1" xmlns="http://www.w3.org/2000/svg" xmlns:xlink="http://www.w3.org/1999/xlink" x="0px" y="0px"
	 viewBox="0 0 124.2 162.1" style="enable-background:new 0 0 124.2 162.1;" xml:space="preserve">
<path d="M28.4,162.1c-5.9,0-11.7,0-17.6,0c-0.1-1-0.2-1.9-0.2-2.9c0-13.6,0-27.3,0-40.9c0-0.9-0.1-1.7-0.1-3c-3.7,0-7.1,0-10.5,0
	c0-5.4,0-10.8,0-16.2c3.5,0,6.9,0,10.5,0c0-2.6,0-4.7,0-7.2c-3.6,0-7.1,0-10.5,0c0-5.6,0-11.1,0-16.7c3.5,0,7,0,10.8,0
	c0-25.3,0-50.1,0-74.9c0.7-0.1,1-0.1,1.4-0.1c24.7,0.2,49.4,0.1,74.1,0.8c11.9,0.3,21.6,6,28.6,15.7c8.4,11.6,10.8,24.8,8.4,38.7
	c-2.1,12.1-7.9,22.1-18.6,28.8c-8.3,5.2-17.5,7.4-27.2,7.6c-15.5,0.3-31,0.2-46.4,0.3c-0.9,0-1.7,0-2.6,0c0,2.4,0,4.5,0,6.8
	c21.5,0,42.9,0,64.3,0c0,5.7,0,11,0,16.7c-21.5,0-42.9,0-64.5,0C28.4,131.2,28.4,146.7,28.4,162.1z M28.5,17.3c0,19.4,0,38.4,0,57.7
	c1,0,1.9,0,2.8,0c15.9,0,31.8-0.1,47.8,0c5,0,9.3-1.6,13.2-4.5c14.9-11,14.4-34,5.9-45c-3.9-4.9-8.6-8-15.3-7.9
	c-14.2,0.1-28.4-0.2-42.6-0.3C36.3,17.3,32.5,17.3,28.5,17.3z"/>
</svg>
